<svg width="100" height="100" viewBox="0 0 64 64" xmlns="http://www.w3.org/2000/svg">
  <!-- Define a gradient from light green to blue -->
  <defs>
    <linearGradient id="gradient2" x1="0%" y1="0%" x2="100%" y2="100%">
      <stop offset="0%" style="stop-color:#00d9a6;stop-opacity:1" />
      <stop offset="100%" style="stop-color:#0066ff;stop-opacity:1" />
    </linearGradient>
  </defs>

  <!-- Larger gear -->
  <circle cx="20" cy="20" r="8" stroke="url(#gradient2)" stroke-width="2" fill="none"/>
  <path d="M20 4 L20 0 M20 40 L20 36 M4 20 L0 20 M40 20 L36 20 
           M14 6 L10 2 M26 6 L30 2 M26 34 L30 38 M14 34 L10 38" 
        stroke="url(#gradient2)" stroke-width="2"/>

  <!-- Smaller gear -->
  <circle cx="44" cy="44" r="6" stroke="url(#gradient2)" stroke-width="2" fill="none"/>
  <path d="M44 30 L44 26 M44 58 L44 54 M30 44 L26 44 M58 44 L54 44 
           M36 34 L32 30 M52 34 L56 30 M52 54 L56 58 M36 54 L32 58" 
        stroke="url(#gradient2)" stroke-width="2"/>

  <!-- Connecting lines -->
  <line x1="28" y1="20" x2="44" y2="44" stroke="url(#gradient2)" stroke-width="2" />
  <circle cx="28" cy="20" r="2" fill="url(#gradient2)" />
  <circle cx="44" cy="44" r="2" fill="url(#gradient2)" />
</svg>
